<svg width="745" height="739" viewBox="0 0 745 739" fill="none" xmlns="http://www.w3.org/2000/svg">
<path d="M492.853 290.933C490.551 290.933 488.249 290.402 486.072 289.376C480.473 286.668 477.051 280.912 477.301 274.693C479.291 227.188 477.921 194.772 471.952 159.115C465.484 161.479 458.853 164.063 452.135 166.646C419.906 179.151 383.348 193.307 348.099 193.307C320.844 193.307 296.984 184.719 276.916 167.671C269.416 204.01 271.317 233.687 275.021 271.521C275.573 277.245 272.958 282.781 268.26 285.953C263.593 289.156 257.463 289.499 252.396 286.885C230.245 275.437 215.532 251.885 208.745 216.885C197.266 158.182 211.422 71.0715 230.371 48.9248C256.412 18.5608 309.021 0.424805 371.117 0.424805C426.743 0.424805 497.148 16.6955 527.891 62.3368C560.557 110.749 560.62 237.617 502.969 287.177C500.11 289.661 496.501 290.937 492.86 290.937L492.853 290.933ZM483.926 122.96C486.666 122.96 489.4 123.674 491.827 125.106C495.624 127.345 498.296 131.08 499.171 135.434C505.02 164.522 508.129 190.627 508.973 220.741C525.15 172.61 520.359 106.845 502.067 79.714C482.312 50.4686 430.947 31.5206 371.088 31.5206C319.536 31.5206 273.558 46.2967 253.952 69.1353C244.556 80.2135 228.442 155.625 239.264 210.949C239.67 213.063 240.139 215.209 240.665 217.417C240.79 190.944 244.15 164.22 254.045 131.891C255.79 126.292 260.483 122.151 266.274 121.125C271.998 119.943 277.879 122.432 281.394 127.099C299.316 151.083 320.53 162.225 348.129 162.225C377.561 162.225 409.76 149.751 440.9 137.678C454.155 132.542 467.004 127.569 479.228 123.678C480.749 123.214 482.369 122.964 483.926 122.964L483.926 122.96Z" fill="#F8A81B"/>
<path d="M381.133 732.24C374.54 732.24 368.659 728.073 366.451 721.849L279.773 475.543C279.242 474.017 278.966 472.433 278.904 470.845L276.633 394.933C255.289 405.605 228.283 419.48 220.195 425.173C213.133 430.09 203.425 428.407 198.545 421.376C193.597 414.313 195.31 404.636 202.342 399.725C217.899 388.835 277.91 359.589 284.659 356.293C289.419 354.022 295.018 354.304 299.528 356.976C304.07 359.715 306.872 364.538 307.028 369.824L309.95 467.543L380.789 668.796L448.205 467.13L457.444 375.135C457.976 369.817 461.179 365.182 465.939 362.786C470.7 360.39 476.361 360.64 480.903 363.406C488.216 367.823 498.419 373.177 508.622 378.619C523.335 386.427 537.21 393.802 545.242 399.463C552.304 404.38 553.987 414.114 549.039 421.114C544.091 428.177 534.326 429.859 527.388 424.911C520.919 420.369 507.258 413.119 494.039 406.088C491.362 404.656 488.659 403.224 486.044 401.828L478.981 471.984C478.888 473.135 478.638 474.255 478.299 475.343L395.95 721.677C393.835 727.994 387.955 732.255 381.299 732.317C381.226 732.229 381.164 732.229 381.133 732.229L381.133 732.24Z" fill="#F8A81B"/>
<path d="M124.827 738.213C123.269 738.213 121.686 737.963 120.16 737.5C111.946 734.916 107.436 726.208 110.019 717.995L137.894 629.421C139.852 623.103 145.67 618.718 152.301 618.53C159.426 618.843 164.931 622.39 167.265 628.609L196.759 707.073H435.906C468.01 651.911 499.713 590.313 508.239 573.579L500.833 524.017C500.12 519.194 501.672 514.277 505.125 510.793C508.578 507.277 513.495 505.412 518.286 506.282L528.833 507.683L520.776 413.386C520.307 408.1 522.578 402.964 526.75 399.761C530.948 396.526 536.458 395.656 541.463 397.396L698.077 452.927C701.623 454.203 704.639 456.724 706.478 460.052C744.743 528.713 746.019 623.598 743.874 722.972C743.686 731.404 736.749 738.185 728.316 738.185H633.332C626.551 738.185 620.546 733.768 618.494 727.294L604.087 681.716L586.696 728.071C584.457 734.138 578.608 738.149 572.134 738.149H445.076H444.488L185.981 738.154C179.512 738.154 173.695 734.138 171.418 728.076L153.997 681.721L139.622 727.3C137.602 733.982 131.445 738.216 124.816 738.216L124.827 738.213ZM644.733 707.099H713.051C714.546 620.359 712.087 538.565 682.004 480.272L553.827 434.819L561.478 524.387C561.884 529.085 560.139 533.72 556.717 536.986C553.327 540.22 548.66 541.965 543.931 541.121L534.66 539.908L539.764 573.913C540.264 577.116 539.733 580.35 538.27 583.246C537.895 583.929 506.348 646.434 471.816 707.101H561.384L590.786 628.637C593.088 622.444 598.874 618.121 605.718 618.559C612.374 618.746 618.129 623.1 620.155 629.449L644.733 707.099Z" fill="#F8A81B"/>
<path d="M124.827 738.213H17.6187C9.0302 738.213 2.0614 731.245 2.0614 722.656C2.0614 714.067 9.0302 707.099 17.6187 707.099H124.827C133.415 707.099 140.384 714.067 140.384 722.656C140.384 731.245 133.447 738.213 124.827 738.213Z" fill="#F8A81B"/>
<path d="M17.6254 738.213C9.28683 738.213 2.41203 731.651 2.06803 723.281C-2.94237 592.896 7.10963 506.841 32.776 460.148C34.6094 456.882 37.5364 454.299 41.1146 453.023C71.1666 442.039 99.1972 433.05 127.229 424.059C152.959 415.783 178.656 407.57 205.975 397.742C210.922 395.971 216.49 396.809 220.72 400.044C224.918 403.278 227.189 408.445 226.725 413.669L218.73 507.685L229.215 506.284C234.006 505.695 238.892 507.216 242.282 510.701C245.704 514.123 247.355 519.008 246.699 523.8L240.35 570.373C251.303 588.789 292.028 657.67 320.99 708.973C325.219 716.473 322.579 725.957 315.11 730.192C307.641 734.389 298.126 731.78 293.891 724.311C260.355 664.827 210.886 581.671 210.855 581.631C209.053 578.584 208.334 575.069 208.834 571.584L213.157 539.85L203.699 541.095C199.001 541.902 194.303 540.225 190.913 536.959C187.491 533.725 185.746 529.058 186.152 524.391L193.741 434.979C174.361 441.604 155.569 447.641 136.777 453.677C110.891 461.984 85.006 470.291 57.506 480.182C36.85 522.77 28.6674 604.067 33.2407 722.035C33.5532 730.624 26.8604 737.869 18.3087 738.213C18.0327 738.207 17.8139 738.207 17.6264 738.207L17.6254 738.213Z" fill="#F8A81B"/>
<path d="M422.133 452.24C410.717 452.24 400.232 444.401 390.524 434.568C384.644 436.464 378.019 436.464 372.108 434.443C360.035 446.516 345.477 455.099 332.004 450.246C313.556 443.558 312.124 414.251 312.124 405.412C312.124 396.579 313.556 367.24 332.004 360.579C345.473 355.787 360.035 364.313 372.108 376.382C377.988 374.423 384.613 374.392 390.524 376.225C403.498 363.095 419.425 354.261 433.024 361.199C449.169 369.381 450.915 394.797 450.915 405.344C450.915 415.922 449.17 441.432 433.024 449.677C429.597 451.37 425.956 452.24 422.133 452.24V452.24ZM340.467 383.98C339.967 384.912 337.045 392.97 337.045 405.387C337.045 417.798 339.998 425.856 341.586 427.413C341.368 426.794 346.472 426.044 360.409 410.58C364.982 405.538 372.789 405.075 377.925 409.616C379.977 411.481 382.873 411.606 385.144 409.648C390.279 405.325 397.93 405.851 402.472 410.861C415.383 425.268 420.488 427.101 421.884 427.32C423.129 425.731 426.051 417.737 426.082 405.419C426.082 392.726 422.972 384.575 421.321 383.017C421.321 383.423 416.53 384.262 402.499 399.913C397.988 404.924 390.301 405.45 385.171 401.096C382.681 398.918 379.228 399.976 377.89 401.158C372.754 405.637 364.978 405.174 360.436 400.163C346.78 385.133 341.712 383.981 340.467 383.981L340.467 383.98Z" fill="#F8A81B"/>
</svg>
