<svg width="748" height="689" viewBox="0 0 748 689" fill="none" xmlns="http://www.w3.org/2000/svg">
<path d="M455 342.413C447.787 346.574 443.344 354.267 443.333 362.596V594.062C443.344 602.396 447.792 610.089 455.011 614.25C462.229 618.412 471.12 618.412 478.333 614.245L678.88 498.51C686.073 494.339 690.505 486.646 690.505 478.328C690.505 470.01 686.073 462.317 678.88 458.145L478.333 342.41C474.786 340.364 470.76 339.285 466.667 339.285C462.573 339.285 458.547 340.364 455 342.41L455 342.413ZM490 402.965L620.552 478.329L490 553.693V402.965Z" fill="#F8A81B"/>
<path d="M560 269.733V69.9997C560 63.8122 557.542 57.8746 553.167 53.4997C548.792 49.1247 542.854 46.6663 536.667 46.6663H455V23.333C455 14.9945 450.552 7.29167 443.333 3.125C436.115 -1.04167 427.219 -1.04167 420 3.125C412.781 7.29167 408.333 14.9947 408.333 23.333V46.6663H151.667V23.333C151.667 14.9945 147.219 7.29167 140 3.125C132.781 -1.04167 123.885 -1.04167 116.667 3.125C109.448 7.29167 105 14.9947 105 23.333V46.6663H23.3333C17.1459 46.6663 11.2083 49.1247 6.83333 53.4997C2.4584 57.8746 0 63.8122 0 69.9997V583.333C0 589.52 2.4584 595.458 6.83333 599.833C11.2083 604.208 17.1459 606.666 23.3333 606.666H370.76C413.796 662.51 481.979 693.03 552.293 687.932C622.605 682.828 685.68 642.786 720.2 581.317C754.727 519.848 756.101 445.157 723.862 382.464C691.627 319.766 630.075 277.428 559.995 269.74L560 269.733ZM46.6667 93.333H513.333V151.666H46.6667V93.333ZM343.24 560H46.6667V198.333H513.333V269.734C462.016 275.469 414.609 299.917 380.177 338.396C345.74 376.874 326.693 426.693 326.667 478.329C326.599 506.392 332.24 534.178 343.235 559.996L343.24 560ZM536.667 641.666C493.349 641.666 451.803 624.458 421.172 593.828C390.541 563.197 373.333 521.65 373.333 478.333C373.333 435.016 390.541 393.469 421.172 362.838C451.803 332.208 493.349 315 536.667 315C579.984 315 621.531 332.208 652.161 362.838C682.792 393.469 700 435.016 700 478.333C700 521.65 682.792 563.197 652.161 593.828C621.531 624.458 579.984 641.666 536.667 641.666Z" fill="#F8A81B"/>
</svg>
