<svg width="182" height="181" viewBox="0 0 182 181" fill="none" xmlns="http://www.w3.org/2000/svg">
<path d="M0 30.1111V150.556C0 167.158 13.5582 180.667 30.2222 180.667H84.6222V0H30.2222C13.5582 0 0 13.5084 0 30.1111ZM60.4445 48.1778C60.4445 58.1385 52.3086 66.2445 42.3111 66.2445C32.3136 66.2445 24.1778 58.1385 24.1778 48.1778C24.1778 38.217 32.3136 30.1111 42.3111 30.1111C52.3086 30.1111 60.4445 38.217 60.4445 48.1778Z" fill="#6E6FFF"/>
<path d="M151.111 0H96.7111V180.667H151.111C167.775 180.667 181.333 167.158 181.333 150.556V30.1111C181.333 13.5084 167.775 0 151.111 0ZM139.022 150.556C129.025 150.556 120.889 142.45 120.889 132.489C120.889 122.528 129.025 114.422 139.022 114.422C149.02 114.422 157.156 122.528 157.156 132.489C157.156 142.45 149.02 150.556 139.022 150.556Z" fill="#6E6FFF"/>
</svg>
