<svg width="48" height="40" viewBox="0 0 48 40" fill="none" xmlns="http://www.w3.org/2000/svg">
<path d="M4 3.79674e-07C3.85303 -0.00179453 3.70631 0.0126154 3.5625 0.0429691C1.56172 0.263763 0 1.94014 0 4V36C0 38.0612 1.56376 39.738 3.56641 39.957C3.70894 39.9871 3.85434 40.0015 4 40H28H44C46.1861 40 48 38.1861 48 36V4C48 1.81387 46.1861 3.79674e-07 44 3.79674e-07H26H4ZM23.7773 4H44V36H27.3945C27.2068 34.7178 27.0172 33.4294 26.8164 31.8359C25.9164 31.9379 24.98 32 24 32C15.616 32 10.0152 27.7659 9.78125 27.5859C8.90525 26.9119 8.74006 25.6553 9.41406 24.7812C10.0861 23.9053 11.3388 23.7402 12.2148 24.4102C12.3048 24.4762 17.06 28 24 28C24.824 28 25.6073 27.9454 26.3633 27.8594C26.1493 25.7054 26 23.63 26 22H21.3711C20.6191 22 19.9975 21.3712 20.0195 20.6172C20.2343 13.0688 22.1642 7.46676 23.7773 4ZM26.3633 27.8594C26.4953 29.1834 26.6524 30.5339 26.8164 31.8359C33.6164 31.0619 38.0107 27.7459 38.2188 27.5859C39.0928 26.9119 39.2599 25.6553 38.5859 24.7812C37.9119 23.9032 36.6553 23.7421 35.7812 24.4141C35.7413 24.4461 32.0653 27.2114 26.3633 27.8594ZM35.9688 9.97266C35.439 9.98094 34.9342 10.1991 34.5651 10.5791C34.196 10.9592 33.9927 11.4702 34 12V14C33.9963 14.265 34.0452 14.5281 34.144 14.7741C34.2429 15.02 34.3896 15.2439 34.5757 15.4326C34.7618 15.6213 34.9835 15.7712 35.228 15.8735C35.4725 15.9758 35.7349 16.0285 36 16.0285C36.2651 16.0285 36.5275 15.9758 36.772 15.8735C37.0165 15.7712 37.2382 15.6213 37.4243 15.4326C37.6104 15.2439 37.7571 15.02 37.856 14.7741C37.9548 14.5281 38.0037 14.265 38 14V12C38.0037 11.7324 37.9536 11.4668 37.8528 11.2189C37.7519 10.9711 37.6024 10.7459 37.413 10.5569C37.2236 10.3679 36.9982 10.2187 36.7501 10.1184C36.502 10.018 36.2363 9.96848 35.9688 9.97266ZM12 10C13.104 10 14 10.894 14 12V14C14 15.106 13.104 16 12 16C10.896 16 10 15.106 10 14V12C10 10.894 10.896 10 12 10Z" fill="#6E6FFF"/>
</svg>
