<svg width="44" height="53" viewBox="0 0 44 53" fill="none" xmlns="http://www.w3.org/2000/svg">
<path d="M11.3555 0.0312459C11.174 0.0354171 10.9971 0.0888836 10.8438 0.185915C10.6904 0.282947 10.5663 0.419886 10.4848 0.582055C10.4033 0.744224 10.3675 0.92551 10.3812 1.10648C10.3949 1.28746 10.4576 1.4613 10.5625 1.60937L13.5195 5.88281C10.6803 8.05859 8.69176 11.2908 8.16016 15H35.8398C35.3082 11.2908 33.3197 8.05859 30.4805 5.88281L33.4375 1.60937C33.5439 1.45913 33.6068 1.28244 33.6192 1.09875C33.6316 0.915065 33.5931 0.731516 33.5079 0.568326C33.4226 0.405137 33.294 0.26864 33.1362 0.173875C32.9783 0.0791105 32.7974 0.0297548 32.6133 0.0312459C32.451 0.0327403 32.2915 0.0737069 32.1486 0.150609C32.0057 0.227512 31.8836 0.33804 31.793 0.472652L28.8125 4.78515C26.7965 3.65546 24.4776 3 22 3C19.5224 3 17.2035 3.65546 15.1875 4.78515L12.207 0.472652C12.1134 0.333616 11.9864 0.22033 11.8376 0.143201C11.6888 0.066072 11.523 0.0275746 11.3555 0.0312459ZM16 7C17.104 7 18 7.896 18 9C18 10.104 17.104 11 16 11C14.896 11 14 10.104 14 9C14 7.896 14.896 7 16 7ZM28 7C29.104 7 30 7.896 30 9C30 10.104 29.104 11 28 11C26.896 11 26 10.104 26 9C26 7.896 26.896 7 28 7ZM2 19C0.896 19 0 19.896 0 21V37C0 38.104 0.896 39 2 39C3.104 39 4 38.104 4 37V21C4 19.896 3.104 19 2 19ZM8 19V39C8 41.21 9.79 43 12 43V50C12 51.656 13.344 53 15 53C16.656 53 18 51.656 18 50V43H26V50C26 51.656 27.344 53 29 53C30.656 53 32 51.656 32 50V43C34.21 43 36 41.21 36 39V19H8ZM42 19C40.896 19 40 19.896 40 21V37C40 38.104 40.896 39 42 39C43.104 39 44 38.104 44 37V21C44 19.896 43.104 19 42 19Z" fill="#6E6FFF"/>
</svg>
