<svg width="44" height="44" viewBox="0 0 44 44" fill="none" xmlns="http://www.w3.org/2000/svg">
<path d="M12 0C5.38453 0 0 5.38453 0 12V32C0 38.6155 5.38453 44 12 44H32C38.6155 44 44 38.6155 44 32V12C44 5.38453 38.6155 0 32 0H12ZM12 2H32C37.5345 2 42 6.46547 42 12V32C42 37.5345 37.5345 42 32 42H12C6.46547 42 2 37.5345 2 32V12C2 6.46547 6.46547 2 12 2ZM8.61523 15.0664C7.91223 15.0664 7.39453 15.5676 7.39453 16.2266C7.39453 16.8766 7.91223 17.377 8.61523 17.377C9.31823 17.377 9.83789 16.8766 9.83789 16.2266C9.83789 15.5676 9.31823 15.0664 8.61523 15.0664ZM19.0371 15.6367C15.3981 15.6367 13.1133 18.1852 13.1133 22.2812C13.1133 26.3682 15.3541 28.9336 19.0371 28.9336C22.7111 28.9336 24.9434 26.3593 24.9434 22.2812C24.9434 18.1943 22.6931 15.6377 19.0371 15.6367ZM31.9668 15.6367C29.1988 15.6367 27.3516 17.1394 27.3516 19.3984C27.3516 21.2614 28.3974 22.3702 30.6914 22.9062L32.3262 23.3027C34.0052 23.6977 34.7441 24.2771 34.7441 25.2441C34.7441 26.3691 33.584 27.1855 32.002 27.1855C30.3069 27.1855 29.1289 26.4216 28.9609 25.2188H27.0078C27.1488 27.4867 29.0376 28.9355 31.8496 28.9355C34.8556 28.9355 36.7363 27.4162 36.7363 24.9902C36.7363 23.0832 35.6645 22.0279 33.0625 21.4219L31.666 21.0781C30.014 20.6911 29.3457 20.1726 29.3457 19.2676C29.3457 18.1246 30.3835 17.3789 31.9395 17.3789C33.4165 17.3789 34.4341 18.1064 34.6191 19.2754H36.5352C36.4212 17.1394 34.5418 15.6367 31.9668 15.6367ZM19.0371 17.4727C21.4461 17.4727 22.9316 19.3372 22.9316 22.2812C22.9316 25.2073 21.4451 27.0977 19.0371 27.0977C16.6031 27.0977 15.127 25.2083 15.127 22.2812C15.127 19.3372 16.6461 17.4737 19.0371 17.4727ZM7.67578 19.0566V28.627H9.55664V19.0566H7.67578Z" fill="#6E6FFF"/>
</svg>
