<svg width="180" height="150" viewBox="0 0 180 150" fill="none" xmlns="http://www.w3.org/2000/svg">
<path d="M72.0695 36.6286L72.071 36.6301C73.3108 37.8504 74 39.5128 74 41.2499C74 42.9871 73.3108 44.6494 72.071 45.8698L72.0695 45.8713L60.392 57.4138L59.6725 58.125L60.392 58.8362L72.0695 70.3787L72.071 70.3802C73.3108 71.6005 74 73.2629 74 75C74 76.7371 73.3108 78.3995 72.071 79.6198L72.0695 79.6213L60.392 91.1638L59.6725 91.875L60.392 92.5862L72.0695 104.129L72.071 104.13C73.3108 105.351 74 107.013 74 108.75C74 110.487 73.3108 112.15 72.071 113.37L72.0695 113.371L60.392 124.914L59.6725 125.625L60.392 126.336L72.0691 137.878C73.9415 139.731 74.5132 142.533 73.5125 144.97C72.5118 147.407 70.1324 149 67.5001 149H7.4999C3.90543 149 1 146.088 1 142.5V7.49989C1 3.91153 3.90543 1 7.4999 1H67.5001C70.1325 1 72.5118 2.59272 73.5125 5.02962C74.5132 7.46663 73.9415 10.2687 72.0691 12.1216L60.392 23.6637L59.6725 24.3749L60.392 25.0861L72.0695 36.6286Z" fill="#FF9800" stroke="black" stroke-width="2"/>
<path d="M100.429 19.7551L100.431 19.7534L117.492 2.88016C117.492 2.87994 117.492 2.87972 117.492 2.8795C118.717 1.67497 120.355 1 122.063 1H172.5C176.095 1 179 3.91153 179 7.49981V142.5C179 146.088 176.095 149 172.5 149H122.062C120.355 149 118.717 148.325 117.492 147.121C117.492 147.12 117.492 147.12 117.491 147.12L100.431 130.247L100.429 130.245C99.1893 129.025 98.5001 127.362 98.5001 125.625C98.5001 123.888 99.1893 122.226 100.429 121.005L100.431 121.004L112.108 109.461L112.828 108.75L112.108 108.039L100.431 96.4963L100.429 96.4949C99.1893 95.2745 98.5001 93.6122 98.5001 91.875C98.5001 90.1379 99.1893 88.4755 100.429 87.2552L100.431 87.2537L112.108 75.7112L112.828 75L112.108 74.2888L100.431 62.7463L100.429 62.7448C99.1893 61.5245 98.5001 59.8621 98.5001 58.125C98.5001 56.3878 99.1893 54.7255 100.429 53.5051L100.431 53.5037L112.108 41.9612L112.828 41.25L112.108 40.5387L100.431 28.9962L100.429 28.9947C99.1896 27.7744 98.5004 26.1121 98.5004 24.3749C98.5004 22.6378 99.1896 20.9754 100.429 19.7551Z" fill="#303F9F" stroke="black" stroke-width="2"/>
</svg>
