<svg width="75" height="150" viewBox="0 0 75 150" fill="none" xmlns="http://www.w3.org/2000/svg">
<path d="M71.0151 37.6955L71.0188 37.6991C71.9694 38.6348 72.5 39.9108 72.5 41.2499C72.5 42.5891 71.9694 43.8651 71.0188 44.8008L71.0151 44.8044L59.3375 56.347L57.5387 58.125L59.3375 59.903L71.0151 71.4455L71.0188 71.4492C71.9694 72.3848 72.5 73.6609 72.5 75C72.5 76.3391 71.9694 77.6152 71.0188 78.5508L71.0151 78.5545L59.3375 90.097L57.5387 91.875L59.3375 93.653L71.0151 105.196L71.0188 105.199C71.9694 106.135 72.5 107.411 72.5 108.75C72.5 110.089 71.9694 111.365 71.0188 112.301L71.0151 112.305L59.3375 123.847L57.5387 125.625L59.3376 127.403L71.014 138.944C72.4551 140.37 72.8943 142.526 72.1249 144.4C71.3555 146.274 69.5246 147.5 67.5001 147.5H7.4999C4.73482 147.5 2.5 145.261 2.5 142.5V7.49989C2.5 4.739 4.73482 2.5 7.4999 2.5H67.5001C69.5248 2.5 71.3556 3.72591 72.1249 5.59939C72.8943 7.47316 72.4551 9.62935 71.014 11.0554L59.3375 22.5969L57.5387 24.3749L59.3375 26.1529L71.0151 37.6955Z" fill="#F8A81B" stroke="black" stroke-width="5"/>
</svg>
