<svg width="75" height="150" viewBox="0 0 75 150" fill="none" xmlns="http://www.w3.org/2000/svg">
<path d="M72.0695 36.6286L72.071 36.6301C73.3108 37.8504 74 39.5128 74 41.2499C74 42.9871 73.3108 44.6494 72.071 45.8698L72.0695 45.8713L60.392 57.4138L59.6725 58.125L60.392 58.8362L72.0695 70.3787L72.071 70.3802C73.3108 71.6005 74 73.2629 74 75C74 76.7371 73.3108 78.3995 72.071 79.6198L72.0695 79.6213L60.392 91.1638L59.6725 91.875L60.392 92.5862L72.0695 104.129L72.071 104.13C73.3108 105.351 74 107.013 74 108.75C74 110.487 73.3108 112.15 72.071 113.37L72.0695 113.371L60.392 124.914L59.6725 125.625L60.392 126.336L72.0691 137.878C73.9415 139.731 74.5132 142.533 73.5125 144.97C72.5118 147.407 70.1324 149 67.5001 149H7.4999C3.90543 149 1 146.088 1 142.5V7.49989C1 3.91153 3.90543 1 7.4999 1H67.5001C70.1325 1 72.5118 2.59272 73.5125 5.02962C74.5132 7.46663 73.9415 10.2687 72.0691 12.1216L60.392 23.6637L59.6725 24.3749L60.392 25.0861L72.0695 36.6286Z" fill="#FF9800" stroke="black" stroke-width="2"/>
</svg>
