<svg width="83" height="150" viewBox="0 0 83 150" fill="none" xmlns="http://www.w3.org/2000/svg">
<path d="M3.42942 19.7551L3.43113 19.7534L20.4917 2.88016C20.492 2.87994 20.4922 2.87972 20.4924 2.8795C21.7168 1.67497 23.3553 1 25.0627 1H75.5005C79.0949 1 82.0003 3.91153 82 7.49981V142.5C82 146.088 79.0946 149 75.5001 149H25.0624C23.3554 149 21.7171 148.325 20.4924 147.121C20.492 147.12 20.4917 147.12 20.4914 147.12L3.43077 130.247L3.42907 130.245C2.18927 129.025 1.50008 127.362 1.50008 125.625C1.50008 123.888 2.18927 122.226 3.42907 121.005L3.43056 121.004L15.1081 109.461L15.8276 108.75L15.1081 108.039L3.43057 96.4963L3.42907 96.4949C2.18927 95.2745 1.50008 93.6122 1.50008 91.875C1.50008 90.1379 2.18927 88.4755 3.42907 87.2552L3.43056 87.2537L15.1081 75.7112L15.8276 75L15.1081 74.2888L3.43057 62.7463L3.42907 62.7448C2.18927 61.5245 1.50008 59.8621 1.50008 58.125C1.50008 56.3878 2.18927 54.7255 3.42907 53.5051L3.43056 53.5037L15.1081 41.9612L15.8276 41.25L15.1081 40.5387L3.43093 28.9962L3.42942 28.9947C2.18962 27.7744 1.50043 26.1121 1.50043 24.3749C1.50043 22.6378 2.18962 20.9754 3.42942 19.7551Z" fill="#303F9F" stroke="black" stroke-width="2"/>
</svg>
