<svg width="83" height="150" viewBox="0 0 83 150" fill="none" xmlns="http://www.w3.org/2000/svg">
<path d="M4.48166 20.8241L4.48591 20.8199L21.5438 3.94932C21.5445 3.94865 21.5452 3.94798 21.5459 3.94731C22.4922 3.01711 23.7533 2.5 25.0627 2.5H75.5005C78.2656 2.5 80.5002 4.73899 80.5 7.49968V7.49989V142.5C80.5 145.261 78.2652 147.5 75.5001 147.5H25.0624C23.7532 147.5 22.4922 146.983 21.5456 146.053C21.5449 146.052 21.5442 146.051 21.5435 146.051L4.48556 129.18L4.4813 129.176C3.53073 128.24 3.00008 126.964 3.00008 125.625C3.00008 124.286 3.53073 123.01 4.4813 122.074L4.48504 122.071L16.1626 110.528L17.9614 108.75L16.1626 106.972L4.48504 95.4295L4.4813 95.4258C3.53073 94.4902 3.00008 93.2141 3.00008 91.875C3.00008 90.5359 3.53073 89.2599 4.4813 88.3242L4.48504 88.3205L16.1626 76.778L17.9614 75L16.1626 73.222L4.48504 61.6795L4.4813 61.6758C3.53073 60.7401 3.00008 59.4641 3.00008 58.125C3.00008 56.7859 3.53073 55.5098 4.4813 54.5742L4.48504 54.5705L16.1626 43.028L17.9613 41.25L16.1626 39.472L4.48542 27.9294L4.48165 27.9257C3.53109 26.9901 3.00043 25.714 3.00043 24.3749C3.00043 23.0358 3.53109 21.7598 4.48166 20.8241Z" fill="#233E99" stroke="black" stroke-width="5"/>
</svg>
