<svg width="180" height="150" viewBox="0 0 180 150" fill="none" xmlns="http://www.w3.org/2000/svg">
<path d="M71.0151 37.6955L71.0188 37.6991C71.9694 38.6348 72.5 39.9108 72.5 41.2499C72.5 42.5891 71.9694 43.8651 71.0188 44.8008L71.0151 44.8044L59.3375 56.347L57.5387 58.125L59.3375 59.903L71.0151 71.4455L71.0188 71.4492C71.9694 72.3848 72.5 73.6609 72.5 75C72.5 76.3391 71.9694 77.6152 71.0188 78.5508L71.0151 78.5545L59.3375 90.097L57.5387 91.875L59.3375 93.653L71.0151 105.196L71.0188 105.199C71.9694 106.135 72.5 107.411 72.5 108.75C72.5 110.089 71.9694 111.365 71.0188 112.301L71.0151 112.305L59.3375 123.847L57.5387 125.625L59.3376 127.403L71.014 138.944C72.4551 140.37 72.8943 142.526 72.1249 144.4C71.3555 146.274 69.5246 147.5 67.5001 147.5H7.4999C4.73482 147.5 2.5 145.261 2.5 142.5V7.49989C2.5 4.739 4.73482 2.5 7.4999 2.5H67.5001C69.5248 2.5 71.3556 3.72591 72.1249 5.59939C72.8943 7.47316 72.4551 9.62935 71.014 11.0554L59.3375 22.5969L57.5387 24.3749L59.3375 26.1529L71.0151 37.6955Z" fill="#F8A81B" stroke="black" stroke-width="5"/>
<path d="M101.482 20.8241L101.486 20.8199L118.544 3.94932C118.545 3.94865 118.545 3.94798 118.546 3.94731C119.492 3.01711 120.753 2.5 122.063 2.5H172.5C175.266 2.5 177.5 4.73899 177.5 7.49968V7.49989V142.5C177.5 145.261 175.265 147.5 172.5 147.5H122.062C120.753 147.5 119.492 146.983 118.546 146.053C118.545 146.052 118.544 146.051 118.543 146.051L101.486 129.18L101.481 129.176C100.531 128.24 100 126.964 100 125.625C100 124.286 100.531 123.01 101.481 122.074L101.485 122.071L113.163 110.528L114.961 108.75L113.163 106.972L101.485 95.4295L101.481 95.4258C100.531 94.4902 100 93.2141 100 91.875C100 90.5359 100.531 89.2599 101.481 88.3242L101.485 88.3205L113.163 76.778L114.961 75L113.163 73.222L101.485 61.6795L101.481 61.6758C100.531 60.7401 100 59.4641 100 58.125C100 56.7859 100.531 55.5098 101.481 54.5742L101.485 54.5705L113.163 43.028L114.961 41.25L113.163 39.472L101.485 27.9294L101.482 27.9257C100.531 26.9901 100 25.714 100 24.3749C100 23.0358 100.531 21.7598 101.482 20.8241Z" fill="#233E99" stroke="black" stroke-width="5"/>
</svg>
