<svg width="706" height="706" viewBox="0 0 706 706" fill="none" xmlns="http://www.w3.org/2000/svg">
<path d="M4 352.613C4 544.356 160.871 701.227 352.613 701.227C544.356 701.227 701.227 544.356 701.227 352.613C701.227 160.871 544.356 4 352.613 4C160.871 4 4 160.871 4 352.613ZM40.72 352.613C40.72 181.076 181.076 40.72 352.613 40.72C524.151 40.72 664.507 181.076 664.507 352.613C664.507 524.138 524.151 664.507 352.613 664.507C181.089 664.507 40.72 524.151 40.72 352.613Z" fill="#F8A81B" stroke="#F8A81B" stroke-width="8"/>
<path d="M264.957 165.951C264.957 214.164 304.4 253.607 352.613 253.607C400.827 253.607 440.269 214.164 440.269 165.951C440.269 117.737 400.827 78.2947 352.613 78.2947C304.4 78.2947 264.957 117.737 264.957 165.951ZM296.676 165.944C296.676 135.179 321.854 110.007 352.613 110.007C383.373 110.007 408.551 135.184 408.551 165.944C408.551 196.709 383.373 221.881 352.613 221.881C321.848 221.881 296.676 196.704 296.676 165.944Z" fill="#F8A81B" stroke="#F8A81B" stroke-width="3"/>
<path d="M267.832 542.159C267.832 588.935 305.837 626.94 352.613 626.94C399.39 626.94 437.395 588.935 437.395 542.159C437.395 495.382 399.39 457.377 352.613 457.377C305.837 457.377 267.832 495.382 267.832 542.159ZM299.551 542.149C299.551 512.827 323.286 489.087 352.613 489.087C381.941 489.087 405.676 512.827 405.676 542.155C405.676 571.477 381.941 595.217 352.613 595.217C323.286 595.217 299.551 571.477 299.551 542.149Z" fill="#F8A81B" stroke="#F8A81B" stroke-width="3"/>
<path d="M451.624 352.617C451.624 400.831 491.066 440.273 539.28 440.273C587.494 440.273 626.936 400.831 626.936 352.617C626.936 304.404 587.494 264.961 539.28 264.961C491.066 264.961 451.624 304.404 451.624 352.617ZM483.343 352.611C483.343 321.846 508.52 296.673 539.28 296.673C570.04 296.673 595.217 321.851 595.217 352.611C595.217 383.375 570.04 408.548 539.28 408.548C508.515 408.548 483.343 383.37 483.343 352.611Z" fill="#F8A81B" stroke="#F8A81B" stroke-width="3"/>
<path d="M216.137 352.616V352.616C216.137 381.938 192.402 405.679 163.075 405.679C133.752 405.679 110.012 381.944 110.012 352.616C110.012 323.289 133.752 299.553 163.08 299.553C190.991 299.553 216.142 323.314 216.137 352.616ZM78.2932 352.609C78.2932 399.42 116.333 435.953 163.08 435.953C208.368 435.953 247.861 399.436 247.856 352.609C247.856 305.833 209.851 267.828 163.075 267.828C116.298 267.828 78.2932 305.833 78.2932 352.609Z" fill="#F8A81B" stroke="#F8A81B" stroke-width="3"/>
<path d="M280.316 352.616C280.316 393.101 312.134 424.913 352.613 424.913C393.093 424.913 424.911 393.095 424.911 352.616C424.911 312.13 393.092 280.319 352.613 280.319C312.128 280.319 280.316 312.137 280.316 352.616ZM310.035 352.617C310.035 328.481 328.477 310.039 352.613 310.039C376.749 310.039 395.192 328.481 395.192 352.617C395.192 376.753 376.749 395.196 352.613 395.196C328.477 395.196 310.035 376.753 310.035 352.617Z" fill="#F8A81B" stroke="#F8A81B"/>
<path d="M352.613 701.227H682.867C688.084 701.227 692.742 699.47 696.106 696.105C699.47 692.741 701.227 688.083 701.227 682.867C701.227 677.65 699.47 672.991 696.106 669.627C692.741 666.263 688.083 664.507 682.867 664.507H352.613C347.396 664.507 342.738 666.264 339.374 669.628C336.01 672.992 334.253 677.65 334.253 682.867C334.253 688.084 336.01 692.742 339.375 696.106C342.739 699.47 347.397 701.227 352.613 701.227Z" fill="#F8A81B" stroke="#F8A81B" stroke-width="8"/>
</svg>
