<svg width="15" height="15" viewBox="0 0 20 21" fill="none" xmlns="http://www.w3.org/2000/svg">
<path fill-rule="evenodd" clip-rule="evenodd" d="M0 8.68586C0 3.89759 3.84034 0.0159302 8.57764 0.0159302C10.8526 0.0159302 13.0343 0.929366 14.6429 2.55529C16.2516 4.18122 17.1553 6.38645 17.1553 8.68586C17.1553 13.4741 13.3149 17.3558 8.57764 17.3558C3.84034 17.3558 0 13.4741 0 8.68586ZM17.0134 15.6702L19.568 17.7323H19.6124C20.1292 18.2547 20.1292 19.1017 19.6124 19.6241C19.0955 20.1465 18.2576 20.1465 17.7407 19.6241L15.6207 17.1944C15.4203 16.9925 15.3076 16.7183 15.3076 16.4323C15.3076 16.1463 15.4203 15.8721 15.6207 15.6702C16.0072 15.2863 16.6268 15.2863 17.0134 15.6702Z" fill="#000"/>
</svg>
