<svg width="635" height="454" viewBox="0 0 635 454" fill="none" xmlns="http://www.w3.org/2000/svg">
<path d="M477.552 269.463V27.156C477.552 12.1613 465.396 0 450.396 0H27.156C12.1613 0 0 12.1563 0 27.156V269.463C0 284.457 12.1563 296.619 27.156 296.619H450.396C465.391 296.619 477.547 284.462 477.547 269.468L477.552 269.463ZM285.979 151.436L195.172 203.863C192.766 205.253 189.755 203.514 189.755 200.738V95.8776C189.755 93.0964 192.766 91.362 195.172 92.7525L285.979 145.179C288.39 146.57 288.39 150.044 285.979 151.434V151.436Z" fill="#F8A81B"/>
<path d="M529.805 321.729V79.4226C529.805 64.4279 517.649 52.2666 502.649 52.2666H491.212V269.467C491.212 291.977 472.9 310.289 450.389 310.289H52.2559V321.727C52.2559 336.721 64.4121 348.883 79.4119 348.883H502.652C517.641 348.883 529.803 336.721 529.803 321.727L529.805 321.729Z" fill="#F8A81B"/>
<path d="M582.072 373.983V131.676C582.072 116.681 569.916 104.52 554.916 104.52H543.661V321.893C543.661 344.404 525.349 362.716 502.838 362.716L104.518 362.721V373.976C104.518 388.971 116.674 401.132 131.674 401.132H554.914C569.909 401.132 582.065 388.976 582.065 373.976L582.072 373.983Z" fill="#F8A81B"/>
<path d="M607.179 156.796H596.1V374.356C596.1 396.867 577.788 415.179 555.278 415.179H156.784V426.257C156.784 441.252 168.941 453.413 183.94 453.413H607.18C622.175 453.413 634.336 441.257 634.336 426.257L634.331 183.95C634.331 168.95 622.17 156.794 607.175 156.794L607.179 156.796Z" fill="#F8A81B"/>
</svg>
